<svg xmlns="http://www.w3.org/2000/svg" xml:space="preserve" width="468.548" height="418.091" style="shape-rendering:geometricPrecision;text-rendering:geometricPrecision;image-rendering:optimizeQuality;fill-rule:evenodd;clip-rule:evenodd" viewBox="0 0 84.445 75.352"><path d="M3.741 75.352a3.77 3.77 0 0 1-1.907-.493 3.532 3.532 0 0 1-1.347-1.357A3.851 3.851 0 0 1 0 71.579c0-1.077.358-1.98 1.073-2.704.715-.726 1.604-1.089 2.668-1.089.885 0 1.648.266 2.29.798.643.532 1.05 1.23 1.223 2.094H5.68a2.154 2.154 0 0 0-.425-.741 1.909 1.909 0 0 0-.668-.487 2.074 2.074 0 0 0-.845-.171c-.615 0-1.128.219-1.539.658-.41.438-.616.984-.616 1.637s.205 1.197.616 1.632c.411.436.924.653 1.54.653.476 0 .887-.134 1.233-.404.345-.27.583-.636.715-1.099h1.585c-.166.899-.572 1.622-1.218 2.172-.646.549-1.418.823-2.316.823zM42.223 0l7.339 10.881-7.34 10.88-7.338-10.88L42.223 0zm-2.86 26 15.384 22.806H40.068L32.024 36.88 14.68 62.598H0l32.025-47.479L39.364 26zM61.56 50.43 45.87 27.167l7.34-10.88 31.236 46.31-62.452.01 8.186-12.178h31.38zM12.665 75.352c-1.105 0-2.026-.361-2.761-1.083-.736-.722-1.104-1.622-1.104-2.7s.368-1.978 1.104-2.7c.735-.722 1.656-1.083 2.761-1.083.726 0 1.384.164 1.975.493.59.328 1.051.78 1.383 1.357.332.577.498 1.221.498 1.933 0 1.085-.367 1.986-1.099 2.705-.732.718-1.651 1.078-2.757 1.078zm0-1.482a2.3 2.3 0 0 0 1.16-.296c.346-.197.618-.471.814-.824a2.38 2.38 0 0 0 .296-1.181c0-.657-.216-1.204-.648-1.643-.432-.438-.97-.658-1.617-.658-.646 0-1.188.22-1.627.658-.438.439-.658.986-.658 1.643 0 .656.22 1.204.658 1.642.44.44.98.659 1.622.659zm9.899 1.326-1.41-2.477H20.15v2.477h-1.575v-7.254h2.933c.476 0 .908.102 1.295.305.387.204.69.49.907.855.217.366.326.781.326 1.244 0 .463-.117.88-.352 1.254a2.257 2.257 0 0 1-.964.85l1.606 2.746h-1.761zm-2.415-5.803v1.875h1.254c.318 0 .572-.086.762-.259a.868.868 0 0 0 .285-.673.956.956 0 0 0-.125-.493.846.846 0 0 0-.362-.331 1.238 1.238 0 0 0-.56-.12h-1.254zm8.883-1.451c.732 0 1.344.236 1.834.71.49.473.736 1.067.736 1.782 0 .715-.245 1.31-.736 1.783-.49.473-1.102.71-1.834.71h-1.213v2.269h-1.575v-7.254h2.788zm-.062 3.534c.31 0 .561-.097.75-.29.19-.194.286-.443.286-.747s-.095-.554-.285-.751c-.19-.197-.44-.296-.751-.296h-1.15v2.083h1.15zm7.98 3.875c-1.105 0-2.025-.36-2.761-1.083-.736-.722-1.104-1.621-1.104-2.7 0-1.077.368-1.977 1.104-2.699.736-.722 1.656-1.083 2.762-1.083.725 0 1.383.164 1.974.493.59.328 1.052.78 1.383 1.357.332.577.498 1.221.498 1.933 0 1.085-.366 1.986-1.099 2.705-.732.718-1.65 1.078-2.756 1.078zm0-1.482a2.3 2.3 0 0 0 1.161-.295c.346-.197.617-.471.814-.824a2.38 2.38 0 0 0 .295-1.181c0-.657-.216-1.204-.647-1.643-.432-.439-.971-.658-1.617-.658s-1.188.22-1.627.658c-.439.439-.658.986-.658 1.643 0 .656.22 1.204.658 1.642.439.44.98.658 1.622.658zm9.9 1.327-1.41-2.477h-1.006v2.477H42.86v-7.254h2.933c.477 0 .909.101 1.296.305.386.204.689.49.906.855.218.366.327.781.327 1.244 0 .463-.118.88-.353 1.254a2.257 2.257 0 0 1-.963.85l1.606 2.746h-1.762zm-2.416-5.804v1.876h1.254c.318 0 .572-.086.762-.259a.868.868 0 0 0 .285-.674.956.956 0 0 0-.124-.492.846.846 0 0 0-.363-.331 1.238 1.238 0 0 0-.56-.12h-1.254zm10.852 5.804-.508-1.378h-2.89l-.498 1.378H49.73l2.84-7.254h1.482l2.933 7.254h-1.7zm-1.958-5.337-.944 2.59h1.897l-.953-2.59zm9.711-1.917v1.461h-2.02v5.793h-1.576v-5.793h-2.01v-1.461h5.606zm1.867 7.254v-7.254h1.575v7.254h-1.575zm7.494.155c-1.105 0-2.026-.36-2.762-1.083-.735-.722-1.103-1.621-1.103-2.7 0-1.077.368-1.977 1.103-2.699.736-.722 1.657-1.083 2.762-1.083.726 0 1.384.164 1.974.493.591.328 1.052.78 1.384 1.357.332.577.497 1.221.497 1.933 0 1.085-.366 1.986-1.098 2.705-.732.718-1.651 1.078-2.757 1.078zm0-1.482a2.3 2.3 0 0 0 1.16-.295c.346-.197.617-.471.814-.824a2.38 2.38 0 0 0 .296-1.181c0-.657-.216-1.204-.648-1.643-.432-.439-.97-.658-1.617-.658-.646 0-1.188.22-1.627.658-.438.439-.658.986-.658 1.643 0 .656.22 1.204.658 1.642.439.44.98.658 1.622.658zm10.51-5.927h1.534v7.254h-1.306l-3.285-4.529v4.53h-1.544v-7.255h1.42l3.181 4.425v-4.425z" style="fill:#ffffff;fill-rule:nonzero"/></svg>