<svg xmlns="http://www.w3.org/2000/svg" xml:space="preserve" width="15.999" height="15.987" style="shape-rendering:geometricPrecision;text-rendering:geometricPrecision;image-rendering:optimizeQuality;fill-rule:evenodd;clip-rule:evenodd" viewBox="0 0 423.32 422.98"><defs><style>.fil0{fill:#000}</style></defs><g id="Слой_x0020_1"><g id="_1295416538816"><path class="fil0" d="M317.49 331.47c0-4.47 1.39-10.29 2.58-13.32 2.06-5.24 5.51-10.19 9.58-13.4 9.66-7.63 22.97-7.75 32.08.07l3.93 3.6c10.81 12.53 10.78 33.64 0 46.1-7.79 9.01-21.33 12.31-31.42 6.52-3.01-1.73-6.1-3.79-8.47-6.52-.73-.83-.87-1.29-1.56-2.27-3.98-5.65-6.72-12.9-6.72-20.78zm-211.66 32.61c-24.47 0-39.2-36.09-17.98-57.46.91-.92.79-.98 1.91-1.87 12.02-9.49 28.21-7.01 37.37 5.67 2.76 3.82 1.85 2.2 4.13 7.46 6.09 14 1.91 30.35-9.17 40.03-1.57 1.37-2.62 1.86-4.5 2.95-1.76 1.03-3.17 1.67-5.17 2.18-1.33.34-5.23 1.04-6.59 1.04zm-41.89-40.76H14.11v-16.31h42.33v-16.3H14.11V86.88h261.05v203.83H155.22v16.3h119.94v16.31H147.72c-.37-5.08-3.17-12.05-4.84-15.81-6.24-13.94-21.28-24.96-35.29-24.96-9.59 0-17.04 1.75-24.7 7.64l-5.47 4.89c-2.76 2.48-6.78 8.39-8.49 12.1-1.83 3.97-4.62 10.9-4.99 16.14zm267.66-138.6h48.95c.14 1.98 7.05 21.13 8.25 24.6l8.51 24.31H331.6v-48.91zm-14.11-9.18v67.27c0 3.21 3.18 6.53 5.39 7.02l80.16.11c1.05 5.21 6.17 16.11 6.17 19.87v20.9H395.1v16.3h14.11v16.31h-21.6c-.63-8.64-7.52-22.98-13.23-28.03-10.25-9.06-15.45-12.74-30.43-12.74-13.86 0-28.72 10.72-35.13 24.63-1.84 3.97-4.62 10.9-5 16.14h-14.55V152.1h79.82c.75 3.73 5.08 13.38 5.29 16.31h-47.19c-3.3-.02-4.69-.35-6.7 1.43-1.26 1.11-3 3.32-3 5.7zM0 77.71v254.78c0 2.45 1.86 4.81 3.25 5.92 2.17 1.75 4.4 1.22 7.77 1.22h52.92c.38 5.27 3.11 11.93 4.84 15.8 6.23 13.94 21.34 24.96 35.28 24.96 14.76 0 20.31-3.64 30.18-12.52 7.43-6.69 11.38-17.81 13.48-28.24h156.1c.52 7.24 4.84 16.72 8.56 22.21l4.67 5.82c10.24 9 15.36 12.73 30.43 12.73 5.26 0 11.49-1.85 15.15-3.9 4.04-2.27 5.43-3.08 8.86-6.06 4.11-3.59 8.63-9.27 11.12-14.66 2.75-5.96 3.53-8.89 5-16.14 3.78 0 28.6.61 31.02-.33 2.2-.86 4.69-3.71 4.69-6.81v-66.75c0-2.8-9.47-28.91-11.08-33.56-3.79-10.95-7.62-22-11.47-33.12-3.78-10.95-7.62-22.01-11.46-33.13-1.9-5.49-3.81-11.01-5.8-16.74-1.61-4.64-3.61-13.39-8.69-13.39h-85.55V77.71c0-3.19-3.42-7.14-6.17-7.14H6.17C3.41 70.57 0 74.52 0 77.71z"/><path class="fil0" d="M35.27 249.94h218.72v-16.31H35.27zM179.08 53.41h63.5V37.1h-63.5zM150.86 53.41h14.11V37.1h-14.11zM98.77 339.63h14.11v-16.31H98.77zM338.66 339.63h14.11v-16.31h-14.11zM140.24 16.32h63.5V.01h-63.5zM112.02 16.32h14.11V.01h-14.11z"/><g><path class="fil0" d="M266.33 422.98h63.5v-16.31h-63.5zM238.11 422.98h14.11v-16.31h-14.11z"/></g><g><path class="fil0" d="M33.15 422.98h63.5v-16.31h-63.5zM4.93 422.98h14.11v-16.31H4.93z"/></g></g></g></svg>