<svg width="18" height="18" fill="none" xmlns="http://www.w3.org/2000/svg"><path fill-rule="evenodd" clip-rule="evenodd" d="M.667 2.333c0-.92.746-1.666 1.666-1.666H6.5c.92 0 1.667.746 1.667 1.666V6.5c0 .92-.747 1.667-1.667 1.667H2.333C1.413 8.167.667 7.42.667 6.5V2.333Zm5.833 0H2.333V6.5H6.5V2.333Zm3.333 0c0-.92.746-1.666 1.667-1.666h4.167c.92 0 1.666.746 1.666 1.666V6.5c0 .92-.746 1.667-1.666 1.667H11.5c-.92 0-1.667-.747-1.667-1.667V2.333Zm5.834 0H11.5V6.5h4.167V2.333Zm-15 9.167c0-.92.746-1.667 1.666-1.667H6.5c.92 0 1.667.746 1.667 1.667v4.167c0 .92-.747 1.666-1.667 1.666H2.333c-.92 0-1.666-.746-1.666-1.666V11.5Zm5.833 0H2.333v4.167H6.5V11.5Zm3.333 0c0-.92.746-1.667 1.667-1.667h4.167c.92 0 1.666.746 1.666 1.667v4.167c0 .92-.746 1.666-1.666 1.666H11.5c-.92 0-1.667-.746-1.667-1.666V11.5Zm5.834 0H11.5v4.167h4.167V11.5Z" fill="#E30614"/></svg>