<svg xmlns="http://www.w3.org/2000/svg" xml:space="preserve" width="16" height="15.999" style="shape-rendering:geometricPrecision;text-rendering:geometricPrecision;image-rendering:optimizeQuality;fill-rule:evenodd;clip-rule:evenodd" viewBox="0 0 423.34 423.33"><path d="M35.3 341.97c0-8.41 7.97-16.18 16.79-16.18 5.66 0 9.33 1.19 13.02 4.62 4.6 4.26 5.25 7.27 5.25 12.93 0 2.91-1.65 6.15-3.42 8.24-1.17 1.38-2.56 2.71-4.13 3.71-11.89 7.63-27.51-.94-27.51-13.32zm220.24-179.12h83.2c19.93 0 28.91-.38 40.93 12.35.5.52.75.83 1.23 1.37 7.88 8.82 8.34 19.78 4.91 30.41-2.42 7.48-8.16 20.82-18.43 20.82.27.93 1.44 2 2.07 2.86 1.88 2.54 4.06 7.24 4.98 10.22 3.87 12.5 3.42 21.1-2.68 32.43-1.42 2.61-4.57 6.48-6.78 8.55l-.95.95c-2.83 2.6-1.48.17 1.54 8.65 5.07 14.26-1.8 35.5-16.21 42.54l.86 5.82c.8 5.19.55 13.64-.39 18.76-1.93 10.49-7.19 19.03-16.96 24.69-9.93 5.75-22.81 7.48-35.6 7.48-6.57 0-33.19.3-38.05-.2-.89-.09-1.8-.02-2.69-.02-4.78-.05-18.33-1.82-23.31-2.65l-23.73-4.75c-13.71-3.61-26.41-6.62-39.9-11.27l-12.76-4.16c-1.38-.48-2.85-.91-4.38-1.44-2.87-1-5.81-1.76-8.71-2.66-8.17-2.53-20.54-5.44-28.92-5.44h-8.89V195.44c12.21 0 15.14.76 26.07-6.48l5.1-3.95c2.81-2.66 9.6-7.7 11.9-10.45 1.24-1.49 3.13-2.97 4.51-4.49 8-8.81 15.27-17.09 22.78-26.37l6.12-7.34c1.46-1.65 2.8-3.11 4.23-4.77l6.26-6.98c.78-.8 1.4-1.54 2.12-2.37l8.87-9.13c5.5-5.13 11.27-15.1 13.73-21.97 3.33-9.3 7.34-24.59 9.52-34.29 1.56-6.97 3.19-13.51 7.06-19.45.78-1.19 3.2-4.69 4.56-4.69 14.51 0 30 2.86 36.46 14.89 3.53 6.57 4.87 11.49 5.93 18.91 1 7 1.47 15.74.22 22.62-1.29 7.1-3.46 12.98-5.86 18.98l-3.83 8.55c-5.92 11.38-14.01 28.36-15.6 40.53-.13 1.02-.28 5.18-.53 5.66zM0 194.06v165.69c0 5.4 2.29 11.29 4.54 14.72 2.62 3.98 5.75 7.24 9.71 9.96 2.11 1.46 3.74 2.46 6.31 3.52 8.97 3.72 17.87 2.8 28.08 2.8h61.72c7.66 0 11.65 1.3 17.64 2.86 11.89 3.1 22.95 7.2 34.51 10.53 1.45.42 2.58.75 3.89 1.19 9.45 3.21 21.78 6.26 31.57 8.92 19.55 5.31 41.47 9.09 62.5 9.09h42.95c13.43 0 28.86-2.93 40.83-8.59 5.42-2.56 10.45-5.76 15.19-9.22l5.65-4.82c4.88-4.5 8.94-9.73 12.07-15.51 1.65-3.04 3.1-5.84 4.32-9.24 2.57-7.18 3.96-14.41 4.41-22.36.05-1.09.26-1.57.24-2.96-.03-5.2.03-3.49 3.74-8.41 1.75-2.31 3.19-4.85 4.58-7.4.86-1.6 1.56-2.87 2.26-4.51 4-9.26 5.97-18.5 5.97-28.68 0-2.33.02-4.39-.32-6.78-.33-2.38-.86-3.75.51-5.81 1.96-2.93 3.56-6.62 4.77-9.95.31-.84.63-1.66.93-2.56 3.8-11.52 5.12-25.06 2.06-36.94-1.07-4.16-1.03-2.3.92-5.43 1.06-1.7 2.01-3.22 2.97-5.01 1.91-3.51 3.72-7.1 4.97-10.91 7.18-21.7 4.49-43.27-9.93-61.08-4.44-5.46-10.97-11.37-17.01-15.29-10.18-6.61-24.36-11.7-37.77-11.63l-50.37.01 4.8-10.4c1.51-3.67 2.87-7.24 4.04-11.08 2.95-9.71 4.25-18.52 4.25-29.81 0-11.48-1.7-23.94-4.6-32.9-.81-2.47-1.65-4.56-2.53-6.78-.42-1.06-1.01-2.21-1.51-3.16-1.69-3.12-3.35-6.12-5.53-9.02-2.53-3.34-5.73-7.34-9.25-9.93-1.01-.75-1.64-1.32-2.68-2.09-7.64-5.7-17.61-10.01-27.16-12.07-11.56-2.48-27.69-4.99-39.36-.65-9.6 3.56-16.33 10.9-21.56 18.84-1.78 2.72-3.22 5.59-4.55 8.57-4.61 10.34-8.9 29.39-11.4 40.97-.81 3.74-1.81 6.77-3.1 10.13-3.04 7.9-6.33 9.34-11.41 15.22l-6.43 6.84c-.31.36-.49.48-.83.83l-8.69 9.75c-1.07 1.26-2.06 2.3-3.07 3.55l-27.13 31.24c-.32.34-.53.47-.86.8-4.37 4.55-8.7 9.15-13.9 12.92-1.78 1.3-3.91.82-6.29.82H36.05c-11.81 0-21.47 4.14-28.54 12.39C2.93 180.58 0 186.73 0 194.06z" style="fill:#000"/></svg>