<svg xmlns="http://www.w3.org/2000/svg" xml:space="preserve" width="16" height="16" style="shape-rendering:geometricPrecision;text-rendering:geometricPrecision;image-rendering:optimizeQuality;fill-rule:evenodd;clip-rule:evenodd" viewBox="0 0 423.32 423.32"><path d="M81.28 148.78h265.76v-23.87h-321v112.42c0 5.92 4.84 10.77 10.77 10.77h13.45v-68.28c0-17.07 13.96-31.04 31.02-31.04zm291.79 0h19.23c17.06 0 31.02 13.97 31.02 31.04v212.47c0 17.07-13.96 31.03-31.02 31.03H81.28c-17.06 0-31.02-13.96-31.02-31.03V274.55H31.03C13.97 274.55 0 260.58 0 243.51V31.04C0 13.97 13.97 0 31.03 0h311.02c17.06 0 31.02 13.97 31.02 31.04v117.74zM26.04 98.22h321V75.25h-321v22.97zm0-49.66h321V35.61c0-5.93-4.85-10.77-10.77-10.77H36.81c-5.93 0-10.77 4.84-10.77 10.77v12.95zM288.3 276.03h-52.95c-6.25 0-11.37 5.12-11.37 11.38 0 6.26 5.12 11.38 11.37 11.38h52.95c6.26 0 11.37-5.12 11.37-11.38 0-6.26-5.11-11.38-11.37-11.38zm73.94 0h-26.48c-6.25 0-11.37 5.12-11.37 11.38 0 6.26 5.12 11.38 11.37 11.38h26.48c6.25 0 11.37-5.12 11.37-11.38 0-6.26-5.12-11.38-11.37-11.38zm-52.95-50.7h52.95c6.25 0 11.37 5.12 11.37 11.38 0 6.26-5.12 11.38-11.37 11.38h-52.95c-6.25 0-11.37-5.12-11.37-11.38 0-6.26 5.12-11.38 11.37-11.38zm-73.94 0h26.48c6.25 0 11.37 5.12 11.37 11.38 0 6.26-5.12 11.38-11.37 11.38h-26.48c-6.25 0-11.37-5.12-11.37-11.38 0-6.26 5.12-11.38 11.37-11.38zm-126.78-.83h82.32c5.69 0 10.34 4.66 10.34 10.35v54.21c0 5.69-4.65 10.35-10.34 10.35h-82.32c-5.68 0-10.34-4.66-10.34-10.35v-54.21c0-5.69 4.66-10.35 10.34-10.35zm16.55 26.08h49.22v22.76h-49.22v-22.76zm-48.84 96.21h321V184.37c0-5.92-4.84-10.77-10.77-10.77H87.05c-5.92 0-10.77 4.85-10.77 10.77v162.42zm321 26.9h-321v12.4c0 5.93 4.85 10.78 10.77 10.78h299.46c5.93 0 10.77-4.85 10.77-10.78v-12.4z" style="fill:#2b2a29"/></svg>