<svg xmlns="http://www.w3.org/2000/svg" xml:space="preserve" width="16" height="15.999" style="shape-rendering:geometricPrecision;text-rendering:geometricPrecision;image-rendering:optimizeQuality;fill-rule:evenodd;clip-rule:evenodd" viewBox="0 0 423.34 423.32"><defs><style>.fil0{fill:#2b2a29}</style></defs><g id="Слой_x0020_1"><g id="_1295418870352"><path class="fil0" d="M187.12 204.84c0 2.68.54 4.11 2.89 5.94 1.24.97 2.89 1.84 4.36 2.38 7.9 2.94 17.42 2.39 24.98-.3 7.5-2.67 24-18.27 29.57-19.74l-11.68 16.91c-1.28 1.91-3.36 3.74-3.56 6.11 1.69-.8 20.23-.78 23.31-.82 2.62-.02 4.43-.43 7.6-.43-1.17.8-3.07 1.22-4.54 1.79-6.87 2.69-20.98 7.14-28.74 9.67-6.94 2.26-5.13 3.07-8.91 10.45-.82 1.6-1.49 2.49-2.27 4.04l-11 21.34s-34.26 65.88-34.71 67.81c1.9.43 12.53 6.58 13.54 7.95h-8.88c0 6.04 10.44 47.36 10.58 53.57l-8.89-.42c0-3.04-.42-5.24-.72-7.65-.36-2.81-.59-5.45-.9-7.91l-3.99-34.56c-.51-4.66-2.53-3.03-10.48-3.03 2.31-4.31 4.21-8.75 6.49-13.25 2.29-4.52 4.41-8.72 6.63-13.12 4.42-8.73 8.72-17.66 13.13-26.37 1.3-2.58 25.49-49.97 26.24-53.15-4.75 2.48-12.74 5.18-18.76 2.65-.85-.36-1.45-.66-2.27-1.11-1.29-.69-1.23-.87-2.25-1.54 0 5.81-1.09 9.73-4.36 13.69-1.05 1.27-1.67 2.27-3.01 3.3l-7.58 4.64c-6.2 2.88-13.83 2.82-19.76-.28 2.3 9.76-5.28 23.43-16.09 23.43-2.81 0-6.28-.22-8.47-1.25-5.58 3.69-27.72 22.55-34.53 27.8l-40.3 32.56c-16.43 14.2-36.5 2-36.5-13.48 0-6.04 1.73-10.87 5.2-14.95 1.54-1.81 2.99-2.54 4.82-4.02l35.27-27.5c3.43-2.59 6.8-5.19 10.22-7.89 1.71-1.35 3.26-2.53 4.97-3.88 2.6-2.05 14.02-10.36 15.3-12.08-3.11-2.05-5.81-5.07-8.9-7.12-1.91.51-14.19 10.51-16.6 12.46l-43.6 33.91c-5.49 4.43-11.09 8.02-14.45 14.6-8.5 16.63-2.93 36.29 14.11 44.51 12.34 5.97 25.91 3.73 36.32-4.71 1.36-1.1 2.31-1.92 3.72-3.01l11.67-9.39c6.29-4.92 13.14-10.17 19.11-15.44 1.35-1.19 2.59-1.99 3.99-3.16 1.34-1.12 2.28-1.95 3.7-3.04 1.63-1.26 2.36-1.99 4.05-3.11 2.99 12.7 12.54 27.76 21.69 36.73 9.97 9.76 6.13 4 4.99 24.39-.24 4.23-.86 7.65-.86 12.13l-8.41-3.41c-10.69-4.34-21-10.15-30.23-16.98-4.22-3.13-16.49-12.22-19.35-16.44-4.52 2.98-8.23 7.02-12.78 9.96-3.88 2.5-10.74 5.89-16.43 6.35 2.26 3.36 5.58 6.39 8.56 9.12 1.28 1.16 2.08 1.59 3.4 2.92 11 11.04 29.73 23.02 43.21 29.68 11.34 5.61 22.04 9.71 35.04 13.48 9.48 2.75 20.28 4.78 30.43 5.91 3.49.39 7.25.67 11.17.84h19.77c7.96-.33 15.73-1.05 22.34-2.15 24.22-4.02 47.29-12.18 68.2-24.66 8.38-5 16.23-10.57 23.79-16.66l9.14-8.12c3.72-3.69 8.35-7.52 11.6-11.55 1.81-2.24 3.7-4.12 5.44-6.34 4.21-5.35 8.48-10.61 12.29-16.32.8-1.2 1.39-2.26 2.28-3.6 1.58-2.37 3.11-4.97 4.47-7.3l7.77-15.33c2.42-5.14 4.84-10.86 6.69-16.4.93-2.77 1.75-5.56 2.75-8.59 5.79-17.49 7.78-37.63 7.78-57.18 0-15.27-2.52-30.47-5.67-42.94-1.66-6.57-3.57-12.79-5.71-18.64-.79-2.17-6.53-17.11-7.67-17.11-7.24 0-25.82 4.19-33.87 4.19.51 2.16 2.85 5.63 3.96 7.81 14.97 29.6 19.92 65.94 13.65 99.16-.84 4.42-1.7 8.14-2.7 11.99-.98 3.75-2.22 8.05-3.6 11.5-2.87 7.15-5.23 14-9.06 20.77-9.97 17.62-11.12 17.84-21.48 31.08-1.24 1.58-2.43 2.39-3.63 3.94-5.07 6.57-17.25 16.13-24.13 20.93-6.17 4.3-17.04 11.25-23.88 14.05-1.85.76-3.7 1.9-5.33 2.27-1.81-3.39-3.76-10.14-5.12-14.18l-7.74-21.66c-1.24-3.59-.59-3.74.77-7.09l8.69-20.7c6.14-13.72 11.47-27.93 17.49-41.73l17.39-41.42c1.15-2.79.01-4.95-.74-7.91-1.34-5.34-2.83-10.27-4.15-15.57-3.81-15.34-8.31-31.06-12.99-46.18l-5.13-14.6-5.08-.41c-19.16 0-42.43 16.59-55.13 27.53-4.34 3.74-8.95 7.45-12.44 11.97-1.33 1.73-1.91 3.53-2.76 5.64-1.07 2.63-3.75 9.6-3.75 13.03zM0 226.61v.79c0 16.51.07 25.06 3.49 41.8 1.48 7.23 3.08 13.92 5.46 20.97.55 1.62 1.91 4.96 2.06 6.75 1.88-.49 1.8-1.46 3.07-2.83.95-1.02 2.13-2.21 3.18-3.13l13.98-10.87c2.02-1.65 5.56-3.84 6.86-5.77-4.67-19.82-5.5-25.02-5.5-46.04 0-12.75 2.9-30.34 6.62-41.59 2.86-8.67 4.11-12.53 8.06-20.91l6.62-12.7c2.35-4.16 4.8-8.1 7.55-11.79 1.45-1.94 2.66-3.64 4.11-5.56l13.7-15.75 15.63-13.44c8.23-6.08 21.24-14.71 30.48-18.41 2.34-.94 4.55-2.03 6.77-2.93 2.41-.98 4.52-1.72 7.02-2.69 4.53-1.77 10.05-3.28 14.94-4.48 33.24-8.2 70.87-5.72 102.43 7.96 1.57.68 5.84 2.81 7.21 2.92.14-.57 11.56-26.25 11.85-29.72l-16.45-6.75c-28.54-9.36-40.6-11.24-72.02-11.24-20.22 0-49.08 6.24-67.33 14.21-11.5 5.04-11.85 5.16-23.54 11.46l-7.1 4.29c-2.44 1.58-4.82 3.06-7.08 4.71l-9.86 7.42c-1.16.9-2.26 1.67-3.3 2.59-4.71 4.16-14.12 12.39-17.98 16.97l-10.61 12.52c-1.9 2.28-3.26 4.34-5.06 6.72-4.43 5.85-9.7 15.02-13.38 21.52-3.42 6.05-8.05 17.42-10.69 24.16C5.03 183.52 0 209.76 0 226.61z"/><path class="fil0" d="M313.69 132.02c-7.1-1.64-.88-7.49-.66-7.77 2.22-2.8 3.44-5.27 5.81-3.18 3.01 2.66-.3 5.24-1.81 7.13-.74.91-2.56 3.26-3.34 3.82zm109.64-45.41v1.48c-.01 11.1-.38 19.36-6.42 29.2-8.15 13.28-17.4 17.88-33.03 21.76-24.86 6.16-63.79 6.91-82.29 14.49-8.12 3.32-22.47 16.08-24.3 16.56-.48-2.03-1.18-4.03-1.79-6.18-2.64-9.32-2.63-4.15 7.82-14.21 1.2-1.16 1.79-1.5 2.96-2.53 9.29-8.19 16.41-10.29 5.59-24.56-8.53-11.24-14.36-5.85-22.08-.11l-25.22 18.17c-1.69 1.26-3.17 2.54-4.96 3.48-1.07-2.01-2.01-3.55-3.11-5.72-.54-1.09-.87-1.77-1.46-2.73-.7-1.1-1.03-1.46-1.36-2.85l10.26-8.28c13.7-12.07 20.03-16.06 27.3-32.86.54-1.25.97-1.85 1.51-3.11 8.61-19.91 15.31-39.34 23.77-59.38 5.96-14.12 11.74-22.7 28.03-27.53 9.97-2.96 22.98-1.74 32.07 1.25 6.16 2.03 14.06 4.71 17.7 10.12 4.79 7.12 3.72 6.46-6.14 13.78-1.74 1.29-3.09 2.29-4.84 3.59-2.3 1.7-22.78 17.48-24.25 17.87 1.61 3.33-.32 22.78 1.97 26.1.73 1.07 1.24 1.5 2.01 2.61.77 1.11 1.22 1.74 1.95 2.68 4.04 5.29 3.06 5.71 7.07 7.24 1.3.5 2.02.76 3.33 1.31 4.55 1.89 8.56 3.58 13.12 5.45 3.72 1.53 3.39.71 6.28-1.27l32.77-23.27c1.88-1.29 3.38-2.85 6.44-2.85 5.41 0 5.7 3.83 6.95 8.19 1.02 3.53 2.31 7.87 2.35 12.11zm-116.41 36.2c-8.16-1.88-.78-7.85 1.08-10.23.91-1.15.68-1.11 1.88-1.91 6.01 3.14 2.58 5.19.37 7.9-1.28 1.56-2.21 2.59-3.33 4.24zm-7.62-9.62c-2.06 0-2.96-1.74-2.96-3.77 0-.99 2.37-3.34 3.02-4.13.95-1.15 2.21-3.08 3.33-3.82 7.18 1.65.77 7.5.42 7.94-1.27 1.61-2.52 3.78-3.81 3.78zm-6.35-8.38c-3.22-.07-5.63-2.85-2.87-5.76 1.85-1.95 3.3-4.56 5.41-5.96 2.32.54 3.39 2.48 3.39 3.77 0 .86-1.71 2.47-2.87 3.87-1.39 1.67-2.73 2.87-3.06 4.08zm11.43-76.17c.91.66 35.97 53.81 41.64 61.37 1.29 1.71 5.45 2.63 8.73 3.92l9.58 3.51c1.87.64 2.87 1.02 4.66 1.67 2.25.82 2.79 1.47 4.81.28 6.02-3.56 19.95-14.09 26.32-18.79l7.43-5.62c1.53-1.12 2.31-1.96 3.93-2.81 4.43 9.12 2.52 26.91-1.82 35.44-5.15 10.11-9.84 13.47-20.77 17.14-14.44 4.85-31.79 7.48-47.18 3.84-4.34-1.02-3.69-1.19-8.78-7.63-1.68-2.13-3.22-3.9-4.97-5.97l-9.94-11.94c-5.51-6.23-14.56-18.36-19.21-24.96-4.76-6.75-5.97-8.9-4.34-15.3 1.55-6.06 2.97-11.27 4.68-17.13l5.23-17.02zm25.4 28.46.13.12c-.01 0-.17-.08-.13-.12zm-.85-14.65.49 7.06c.26 2.3.36 4.28.36 7.17-1.23-.89-17.72-25.83-20.32-29.72-.86-1.28-2.58-3.16-2.96-4.6 2.59-4.85 7.66-8.84 12.69-11.3 10.06-4.93 11.56-5.44 23.71-5.44 10.66 0 16.78 4.62 23.71 9.21l-13.79 10.22c-1.75 1.3-3.21 2.38-4.84 3.59l-9.49 6.94c-3.34 2.37-6.29 4.71-9.56 6.87zM112.61 191.87c0 4.33 1.78 6.21 4.77 9.52l34.07 37.46c6.65 6.51 8.23 12.03 19.16 12.03 8.67 0 18.62-6.99 18.62-15.9 0-4.42-13.38-21.56-16.63-25.83-1.61-2.11-2.82-3.99-4.41-6.1-.82-1.08-1.29-1.85-2.12-2.93-.9-1.19-1.48-1.93-2.32-3.15l-20.11-27.41c-2.82-3.85-6.75-2.96-11.81-.95-8.98 3.56-19.22 12.53-19.22 23.26zM86.37 226.19c0 4.08.85 7.72 3.68 10.58l6.15 6.06c4.91 4.9 22.37 17.77 27.9 21.8 4.7 3.41 10.44 8.44 16.45 8.44 7.8 0 14.39-6.86 14.39-15.49 0-5.32-6.55-12.52-10.48-16.43-1.05-1.05-1.19-1.47-2.11-2.5l-15.02-16.55c-3.62-3.61-15.22-17.16-18.2-18.02-2.53-.73-5.04 0-7.36.92-7.09 2.84-15.4 12.43-15.4 21.19zM143.94 155.88c0 6.65 3.48 9.43 7.19 14.65l28.37 38.08c.16-1.92.89-4.67 1.3-6.67.98-4.71 3.5-14.7 6.21-17.71 1.25-1.4 2.66-2.62 4.02-3.98l13.02-10.98-25.28-34.44c-2.51-3.39-3.46-3.23-7.74-3.23-8.52 0-19.88 6.95-24.12 14.24-1.35 2.34-2.97 6.44-2.97 10.04zM182.88 128.67c0 1.74 14.69 23.57 17.38 28.03 1.81 2.99 4.25 6.13 5.91 9.22 2.43-.56 28.14-18.63 30.47-19.25-1.29-5.51-14.08-25.81-18.25-31.34-5.36-7.1-13.55-7.16-21.11-3.82-6.67 2.94-14.4 9.98-14.4 17.16zM32.6 322.46c0-13.04 13.24-15.38 19.79-9.52 5.94 5.31 5.17 19.97-8.78 19.97-6.66 0-11.01-6.04-11.01-10.45zm11.43 15.9c13.8 0 23.25-16.4 12.81-28.15-10.07-11.32-30.5-3.77-29.49 12.03.61 9.47 8.63 16.12 16.68 16.12zM202.35 231.63c6.08 0 9.97-.87 14.95-4.48 3.06-2.2 6.26-5.54 6.65-10.17-9.26 4.39-23.62 4.27-33.61 1-1.53-.5-2.76-1.12-4.07-1.42 2.31 4.32 9.7 15.07 16.08 15.07z"/></g></g></svg>